<svg width="36" height="36" viewBox="0 0 36 36" fill="none" xmlns="http://www.w3.org/2000/svg">
<path d="M13.5 18H13.515" stroke="#1E1E25" stroke-width="3" stroke-linecap="round" stroke-linejoin="round"/>
<path d="M22.5 18H22.515" stroke="#1E1E25" stroke-width="3" stroke-linecap="round" stroke-linejoin="round"/>
<path d="M15 24C15.75 24.45 16.8 24.75 18 24.75C19.2 24.75 20.25 24.45 21 24" stroke="#1E1E25" stroke-width="3" stroke-linecap="round" stroke-linejoin="round"/>
<path d="M28.5017 9.45C29.8607 11.1535 30.787 13.1607 31.2017 15.3C31.7089 15.5457 32.1367 15.9292 32.436 16.4067C32.7353 16.8843 32.894 17.4364 32.894 18C32.894 18.5636 32.7353 19.1157 32.436 19.5933C32.1367 20.0708 31.7089 20.4543 31.2017 20.7C30.5541 23.7202 28.8905 26.427 26.4882 28.3688C24.086 30.3106 21.0906 31.3698 18.0017 31.3698C14.9128 31.3698 11.9174 30.3106 9.51518 28.3688C7.11296 26.427 5.44927 23.7202 4.80171 20.7C4.29449 20.4543 3.86673 20.0708 3.56743 19.5933C3.26812 19.1157 3.10938 18.5636 3.10938 18C3.10937 17.4364 3.26812 16.8843 3.56743 16.4067C3.86673 15.9292 4.29449 15.5457 4.80171 15.3C5.4231 12.2558 7.07555 9.51903 9.48025 7.55155C11.8849 5.58407 14.8947 4.50627 18.0017 4.5C21.0017 4.5 23.2517 6.15 23.2517 8.25C23.2517 10.35 21.9017 12 20.2517 12C19.0517 12 18.0017 11.4 18.0017 10.5" stroke="#1E1E25" stroke-width="3" stroke-linecap="round" stroke-linejoin="round"/>
</svg>
