<svg width="36" height="36" viewBox="0 0 36 36" fill="none" xmlns="http://www.w3.org/2000/svg">
<path d="M21 24.0001H13.5M28.5 24.0001H33V19.2751C33.001 18.9181 32.8747 18.5725 32.6438 18.3003C32.4128 18.0281 32.0924 17.8472 31.74 17.7901L24 16.5001L19.95 11.1001C19.8103 10.9138 19.6291 10.7626 19.4208 10.6584C19.2125 10.5543 18.9829 10.5001 18.75 10.5001H7.86C7.30091 10.4962 6.75185 10.6486 6.27477 10.9402C5.7977 11.2317 5.41159 11.6508 5.16 12.1501L3.96 14.5951C3.33022 15.847 3.00149 17.2287 3 18.6301V24.0001H6" stroke="#1E1E25" stroke-width="3" stroke-linecap="round" stroke-linejoin="round"/>
<path d="M9.75 28.5C11.8211 28.5 13.5 26.8211 13.5 24.75C13.5 22.6789 11.8211 21 9.75 21C7.67893 21 6 22.6789 6 24.75C6 26.8211 7.67893 28.5 9.75 28.5Z" stroke="#1E1E25" stroke-width="3" stroke-linecap="round" stroke-linejoin="round"/>
<path d="M24.75 28.5C26.8211 28.5 28.5 26.8211 28.5 24.75C28.5 22.6789 26.8211 21 24.75 21C22.6789 21 21 22.6789 21 24.75C21 26.8211 22.6789 28.5 24.75 28.5Z" stroke="#1E1E25" stroke-width="3" stroke-linecap="round" stroke-linejoin="round"/>
</svg>
